<?xml version="1.0" encoding="UTF-8"?> <!-- Generator: Adobe Illustrator 20.1.0, SVG Export Plug-In . SVG Version: 6.00 Build 0) --> <svg xmlns="http://www.w3.org/2000/svg" xmlns:xlink="http://www.w3.org/1999/xlink" id="Layer_1" x="0px" y="0px" viewBox="0 0 45.5 51.375" style="enable-background:new 0 0 45.5 51.375;" xml:space="preserve"> <g> <path style="fill:#4DAB92;" d="M7.19,40.813c-2.597-9.97,0.144-21.167,7.052-28.811c6.908-7.643,17.772-11.499,27.953-9.92 C37.411,20.401,28.403,37.324,7.19,40.813"></path> <path style="fill:#263238;" d="M3.319,49.641c-0.11-0.035,0.404-2.122,1.684-5.348c1.274-3.223,3.4-7.552,6.374-11.945 c2.985-4.387,6.225-7.961,8.75-10.335c2.525-2.38,4.275-3.628,4.348-3.538c0.103,0.121-1.479,1.554-3.851,4.036 c-2.374,2.478-5.48,6.07-8.424,10.396c-2.932,4.331-5.125,8.543-6.551,11.664C4.218,47.692,3.469,49.692,3.319,49.641z"></path> </g> </svg> 