<?xml version="1.0" encoding="UTF-8"?> <!-- Generator: Adobe Illustrator 20.1.0, SVG Export Plug-In . SVG Version: 6.00 Build 0) --> <svg xmlns="http://www.w3.org/2000/svg" xmlns:xlink="http://www.w3.org/1999/xlink" id="Femida" x="0px" y="0px" viewBox="0 0 303 490.945" style="enable-background:new 0 0 303 490.945;" xml:space="preserve"> <g> <path style="fill:#FFB8B8;" d="M128.243,453.033l-9.049-106.045L79.92,287.605l19.275,83.536c0,0-1.989,22.539,2.641,41.78 c1.498,6.226,3.711,12.766,5.734,18.64c3.119,11.26,4.535,16.37,6.85,24.726l-14.285,16.778c-0.886,1.04-0.612,2.629,0.571,3.312 c0.632,0.365,1.404,0.391,2.059,0.07l26.582-12.191L128.243,453.033z"></path> <g> <path style="fill:#F2F2F2;" d="M91.303,101.758l-1.185-0.169c0.044-0.079,0.092-0.146,0.131-0.242 c0.579-1.414,0.38-3.116-0.503-4.362c-1.295-0.323-2.715-0.615-3.897-0.005c-1.27,0.655-1.814,2.122-1.979,3.581 c-0.76,0.129-1.506,0.431-2.134,0.869c-1.438,1.004-2.406,2.531-3.367,3.998s-2.005,2.962-3.523,3.839 c-4.085,2.362-9.642-0.661-13.866,1.443c-3.146,1.567-4.662,5.591-7.993,6.715c3.318,0.86,6.972,0.341,9.919-1.409 c1.117-0.663,2.189-1.515,3.476-1.688c1.963-0.265,3.718,1.098,5.533,1.89c4.414,1.925,10.12,0.111,12.61-4.011 c1.156-1.913,1.735-4.285,3.508-5.646c0.9-0.691,2.034-1.05,2.874-1.814C91.747,103.981,92.156,102.507,91.303,101.758z"></path> <path style="fill:#F2F2F2;" d="M89.725,96.951c0.007,0.01,0.013,0.022,0.02,0.032c0.028,0.007,0.058,0.014,0.086,0.021 L89.725,96.951z"></path> <path style="fill:#D9D7FF;" d="M72.273,112.897c0.011-0.098,0.993,0.121,2.533-0.137c1.519-0.235,2.531-1.356,4.016-3.218 c1.477-1.85,2.495-3.857,3.554-5.083c1.023-1.264,2.971-1.49,2.992-1.44c0.053,0.072-0.764,0.632-1.677,1.909 c-0.461,0.632-0.943,1.435-1.472,2.34c-0.533,0.901-1.117,1.916-1.907,2.874c-1.576,1.978-3.862,2.838-5.454,2.983 c-0.807,0.091-1.466,0.038-1.91-0.036C72.502,113.016,72.267,112.926,72.273,112.897z"></path> <path style="fill:#2F2E41;" d="M145.485,109.021c-0.493-2.656-2.743-4.694-3.388-7.317c-1.204-4.895,4.242-9.718,3.32-14.673 c-0.52-2.796-3.458-4.928-5.428-6.979c-1.635-1.701-3.252-3.685-3.708-5.933c-0.021-0.364-0.07-0.725-0.122-1.086 c-0.003-0.111-0.022-0.219-0.018-0.331l-0.017,0.046c-0.087-0.523-0.198-1.04-0.345-1.542c-1.576-5.363-6.196-9.715-11.643-10.969 s-13.309,0.639-17.073,4.772c-1.534,1.685-1.787,2.521-3.625,3.868c-2.076,1.521-10.646,2.055-10.146,8.604 c0.045,0.595,0.1,1.284-0.095,1.681c-1.547,3.806-6.104,3.866-6.096,10.582c0.003,2.269,1.617,4.244,1.983,6.484 c0.492,3.01-1.084,5.934-1.59,8.941c-0.742,4.421,1.003,8.908,4.033,12.265c0.105,0.718,0.131,1.436-0.005,2.156 c-0.915,4.839-8.197,6.704-8.487,11.62c-0.162,2.74,2.036,5.626,0.702,8.024c-0.997,1.792-3.357,2.129-5.279,2.844 c-4.014,1.494-6.909,5.599-6.968,9.881c-0.04,2.924,1.045,6.154-0.574,8.589c-1.307,1.966-3.933,2.621-5.499,4.387 c-2.562,2.888-1.079,7.938,2.272,9.853c3.352,1.914,7.702,1.199,11.019-0.776c3.855-2.294,6.806-6.147,11.074-7.529 c4.799-1.555,9.93,0.394,14.774,1.8c4.845,1.406,10.69,2.056,14.375-1.389c4.17-3.9,3.439-11.119,7.411-15.22 c2.278-2.352,5.64-3.194,8.627-4.535c2.987-1.34,6.009-3.791,6.011-7.064c0.002-3.106-2.767-5.901-2.144-8.944 c0.39-1.907,2.013-3.284,2.971-4.979c1.497-2.649,1.29-5.891,1.04-8.924c-0.021-0.249-0.041-0.498-0.062-0.747 c0.084-0.092,0.172-0.167,0.254-0.27C144.678,114.174,145.962,111.59,145.485,109.021z"></path> <path style="fill:#FFB8B8;" d="M138.384,86.05c-0.772-7.316-6.012-16.111-13.289-15.029l-22.58,6.732 c-2.211,0.329-3.802,2.294-3.664,4.525l5.802,59.205l25.424,1.566c0,0-1.552-18.545-1.551-18.53c0,0,9.306-1.952,10.732-14.261 C139.967,104.136,139.241,94.179,138.384,86.05z"></path> <path style="fill:#F8ABAA;" d="M128.527,124.519c0,0-8.036,1.046-16.393-3.509c0.139,0.024,5.029,8.503,16.697,6.754 L128.527,124.519z"></path> <path style="fill:#2F2E41;" d="M127.756,69.417c-9.079,1.458-17.983,4.002-26.462,7.561c-1.966,0.825-4.027,1.805-5.136,3.626 c-1.174,1.927,0.176,4.573-0.822,6.597c-3.962,8.042-6.712,13.637-6.712,13.637c-1.126,3.63-2.521,9.615-5.317,11.573 c-1.681,1.177-3.747,1.631-5.649,2.399c-1.903,0.768-3.815,2.053-4.355,4.034c-0.997,3.659,3.159,7.31,2.059,10.939 c-0.709,2.337-3.269,3.503-5.578,4.298c-2.309,0.795-4.896,1.716-5.939,3.924c-1.144,2.423,0.091,5.22,0.888,7.778 s0.774,6.016-1.65,7.156c1.879,1.239,4.508-0.276,5.506-2.293c0.998-2.017,0.984-4.37,1.548-6.549 c0.564-2.179,2.114-4.45,4.363-4.531c1.289-0.046,2.492,0.649,3.776,0.772c2.063,0.198,3.998-1.114,5.322-2.71 s2.227-3.499,3.496-5.138c1.018-1.314,2.676-2.24,4.227-3.232c-0.248,0.381-0.496,0.762-0.744,1.143 c1.805,0.3,3.68,0.387,5.446-0.09c1.766-0.478,3.421-1.578,4.269-3.2c0.836-1.6,0.821-3.516,1.496-5.191 c1.48-3.672,5.97-5.558,7.146-9.339c1.169-3.76-1.344-8.123-0.822-12.027l-1.234,0.051c-0.083-0.847-0.042-1.688,0.226-2.52 c1.226-3.813,6.448-5.18,7.697-8.987c0.725-2.212-0.106-4.733,0.73-6.906c0.786-2.043,2.853-3.285,4.88-4.111 s4.212-1.428,5.886-2.839C127.97,73.831,128.946,71.255,127.756,69.417z"></path> <path style="fill:#F2F2F2;" d="M88.617,95.315c0.639-0.335,20.48-3.406,29.746-4.654c9.265-1.248,20.362-1.233,20.362-1.233 s0.9,2.329,1.279,5.822c0.398,3.664-0.253,4.497-0.253,4.497l-51.346,1.313L88.617,95.315z"></path> <path style="fill:#D9D7FF;" d="M92.506,97.207c0,0,15.666-0.939,23.594-0.967s16.157,0.377,23.594-2.37 C139.694,93.87,108.8,93.17,92.506,97.207z"></path> </g> <path style="fill:#FFB8B8;" d="M140.132,133.64l19.415-12.592l20.691-39.598l6.064-29.609h10.345c0,0,2.14,29.305-1.427,39.267 c-3.567,9.963-20.65,45.122-20.65,45.122l-23.003,21.813L140.132,133.64z"></path> <path style="fill:#FFB8B8;" d="M129.204,132.619c0.432,0,10.341,0.584,10.341,0.584l10.727-3.857c0,0,1.166,38.946,1.166,38.074 s-62.329,17.527-62.329,17.527s-20.935,40.126-22.68,44.778s-25.297,38.381-25.297,38.381l-10.758-5.525l25.297-49.14 c0,0,18.474-50.585,20.322-55.888c4.531-12.994,17.947-16.617,17.947-16.617l10.675-5.582L129.204,132.619z"></path> <g> <path style="fill:#2F2E41;" d="M219.925,145.5c-4.243-15.99-7.966-30.016-10.645-40.114c-1.973-7.384-3.142-12.066-3.735-14.433 v1.286c1.143,4.772,3.981,16.516,7.09,28.553c2.179,8.438,5.959,22.177,6.656,24.709h0.634V145.5z"></path> <path style="fill:#2F2E41;" d="M190.452,145.5c4.243-15.99,7.966-30.016,10.645-40.114c1.973-7.384,3.142-12.066,3.735-14.433 v1.286c-1.143,4.772-3.981,16.516-7.09,28.553c-2.179,8.438-5.959,22.177-6.656,24.709h-0.634V145.5z"></path> <path style="fill:#F2F2F2;" d="M187.481,144.993h35.415c0,0-1.737,13.118-17.825,13.051 C189.146,157.978,187.481,144.993,187.481,144.993z"></path> <path style="fill:#2F2E41;" d="M166.654,145.5c-4.243-15.99-7.966-30.016-10.645-40.114c-1.973-7.384-3.142-12.066-3.735-14.433 v1.286c1.143,4.772,3.981,16.516,7.09,28.553c2.179,8.438,5.959,22.177,6.656,24.709h0.634V145.5z"></path> <path style="fill:#2F2E41;" d="M137.181,145.5c4.243-15.99,7.966-30.016,10.645-40.114c1.973-7.384,3.142-12.066,3.735-14.433 v1.286c-1.143,4.772-3.981,16.516-7.09,28.553c-2.179,8.438-5.959,22.177-6.656,24.709h-0.634V145.5z"></path> <path style="fill:#F2F2F2;" d="M134.21,144.993h35.415c0,0-1.737,13.118-17.825,13.051 C135.875,157.978,134.21,144.993,134.21,144.993z"></path> <rect x="171.522" y="18.754" style="fill:#2F2E41;" width="5.728" height="56.941"></rect> <path style="fill:#FFB8B8;" d="M193.667,45.62c-2.079-2.079-10.116-13.719-10.116-13.719s-15.105,1.386-15.105,4.85v2.356 l1.524,2.91l-0.416,2.494c0,0,0,3.187,0.139,3.742c0.139,0.554,1.801,1.524,1.801,1.524l0.554-2.356l2.807-1.109l2.736,3.88 l8.038,2.772l0.97,1.401c0,0,8.037,0,8.869,0l1.201-2.216C196.67,52.149,195.746,47.698,193.667,45.62z"></path> <path style="fill:#2F2E41;" d="M175.163,100.677c-7.067,0-12.817-5.75-12.817-12.818s5.75-12.818,12.817-12.818 c7.068,0,12.818,5.75,12.818,12.818C187.981,94.927,182.231,100.677,175.163,100.677z M175.163,76.041 c-6.517,0-11.817,5.301-11.817,11.818s5.301,11.818,11.817,11.818s11.818-5.301,11.818-11.818S181.68,76.041,175.163,76.041z"></path> <rect x="143.667" y="89.196" style="fill:#2F2E41;" width="70.304" height="3.512"></rect> </g> <g> <path style="fill:#E0E0E0;" d="M93.978,458.159l-62.984-158.95l14.628-3.14l57.129,159.348c0,0,4.42,12.471,0.949,14.249 C99.708,471.708,93.978,458.159,93.978,458.159z"></path> <path style="fill:#2F2E41;" d="M98.75,457.652c-0.127,0.048-12.055-30.006-27.783-71.704 c-15.733-41.713-28.38-75.555-28.253-75.603s13.333,33.4,29.067,75.113C87.509,427.155,98.877,457.603,98.75,457.652z"></path> <path style="fill:#2F2E41;" d="M58.768,289.496l-6.034,1.441l-13.96-0.292l-11.926-23.426c0,0,1.359-4.139,0.04-5.647 c-1.32-1.508-3.271-2.639-7.103-1.508c0,0-4.775,4.099-1.947,8.271l3.394,1.721l9.514,23.559l-10.601,9.333l-4.616,2.277 l1.774,2.686l43.001-15.045L58.768,289.496z"></path> <path style="fill:#FFB8B8;" d="M26.842,268.106c0,0-7.275,9.627-7.578,10.839c-0.303,1.212,0.758,4.698,1.364,5.608 c0.606,0.909,0.25,6.82,2.398,7.729s3.816,1.667,5.028,1.212s2.319-1.061,2.319-1.061s0.711-3.643,4.35-4.244 c3.192-0.527,4.051,2.455,4.051,2.455l2.328,0.049c0,0-0.468-9.267-0.923-9.826s-3.183-4.954-3.183-4.954l7.968-13.333 l-12.523-4.018L26.842,268.106z"></path> </g> <g> <path style="fill:#025E45;" d="M162.776,278.834c0.547-0.389,1.308-0.191,1.609,0.409c10.499,20.963,24.4,33.56,26.365,50.257 c1.013,8.61,0.329,17.992,5.432,25c5.182,7.119,14.175,11.626,16.853,20.014c2.111,6.614-0.373,13.806,0.321,20.714 c0.681,6.777,4.44,12.962,9.313,17.72s10.821,8.252,16.813,11.488c3.711,2.004,7.665,4.117,9.757,7.779 c2.064,3.614,1.921,8.077,3.418,11.959c2.656,6.886,9.105,13.808,16.012,16.411c7.29,2.748,6.026,4.131,3.401,4.316 c-20.403,1.432-40.578-2.578-43.815-2.914c-0.226-0.023-0.435-0.116-0.606-0.266l-43.08-37.878 c-0.18-0.158-0.303-0.371-0.35-0.606l-15.035-74.911l-11.855-64.838c-0.076-0.417,0.096-0.841,0.441-1.087L162.776,278.834z"></path> <path style="fill:#FFB8B8;" d="M224.111,451.673l23.576,9.862c0.85,0.378,1.396,1.212,1.396,2.132v-0.656 c0,1.342-1.143,2.409-2.502,2.335l-27.978-1.506L224.111,451.673z"></path> <path style="fill:#FFB8B8;" d="M148.623,324.332l57.138,135.482l20.89-1.189c0,0-68.82-193.492-69.449-195.47L148.623,324.332z"></path> <path style="fill:#056C51;" d="M209.832,428.018c0.333-25.296-23.537-43.734-29.528-57.38s6.324-20.303,7.322-32.951 c0.999-12.648-18.138-44.051-18.138-44.051c-5.313-7.333-4.738-13.053-2.988-15.553c3.876-5.537-1.958-10.684-2.569-14.041 c-0.602-3.314-4.179-46.772-11.904-54.352c0.688,0,5.257-0.435,5.502-11.926c0.266-12.428-0.979-22.996-4.967-37.672 l-9.853-27.718l-6.727,0.79l-14.666,24.6c0,0-27.549,4.604-30.406,9.844c-1.242,2.278-4.14,18.79-4.14,18.79 s-4.597,12.754,0,17.537c3.87,4.026,8.362,6.144,9.691,6.716c-0.326,0.469-16.793,24.296-18.909,44.846 c-2.137,20.755,2.315,33.713,2.315,33.713s40.722,105.163,41.637,106.384c0.916,1.221,21.869,55.179,61.995,64.221 c28.676,9.362,42.881,8.951,49.523,6.841C235.628,465.827,209.499,453.314,209.832,428.018z"></path> <path style="fill:#025E45;" d="M152.027,209.69c0.004,0.144-12.364,3.475-27.862,3.935c-15.503,0.461-27.699-2.831-27.703-2.975 s11.973,0.623,27.476,0.162C139.435,210.352,152.022,209.546,152.027,209.69z"></path> <path style="fill:#025E45;" d="M116.75,255.71c0.255-0.493,3.052-5.386,3.376-6.105c0.329-0.716,0.732-1.517,1.106-2.436 c0.802-1.813,1.646-4.018,2.473-6.503c0.799-2.494,1.563-5.272,2.171-8.232c0.587-2.965,0.959-5.823,1.189-8.432 c0.201-2.611,0.276-4.972,0.24-6.954c0.012-0.992-0.05-1.887-0.076-2.674c-0.02-0.788-0.068-1.465-0.111-2.018 c-0.076-1.107-0.102-1.723-0.066-1.727c0.015-0.002,3.114,0.539,4.489,1.372c1.512,4.574,1.458,13-1.542,23.043 C127.661,242.875,123.5,248.46,116.75,255.71z"></path> <path style="fill:#025E45;" d="M137.995,352.649c-0.006-0.013-0.009-0.026-0.015-0.039c-1.771-2.174-3.827-4.726-6.124-7.631 c-7.892-9.964-16.562-25.066-27.232-41.264c-5.353-8.084-8.958-13.38-13.719-26.464c-3.926-10.789-5.441-23.591-4.781-31.875 c1-12.542,2.75-18.125,7.722-30.695c-3.826,5.695-10.159,18.82-12.01,30.322c-2.67,16.331,0.178,31.736,3.718,39.386 c3.542,7.656,12.105,20.002,18.445,27.945c12.111,15.174,19.598,22.962,27.568,32.874c2.644,3.294,4.985,6.135,6.94,8.467 C138.335,353.334,138.155,352.997,137.995,352.649z"></path> <path style="fill:#025E45;" d="M145.219,258.15c-3.209,5.746-7.38,13.927-10.127,23.609c-2.754,9.682-3.172,18.922-2.415,25.453 c0.356,3.273,2.076,10.448,2.059,10.454s-10.228-14.595-6.075-36.179c2.765-9.746,7.331-16.526,12.841-23.027 c2.863-3.377,5.61-6.706,6.623-8.252c0.501-0.777,1.726-2.806,2-3.208C150.402,246.6,146.832,255.272,145.219,258.15z"></path> <path style="fill:#025E45;" d="M86.163,305.447c10.141,19.337,22.243,38.665,37.073,54.692 c14.555,15.73,12.737,27.495,17.568,52.352c2.8,14.405,15.043,29.524,35.026,33.568c16.422,3.323,23.386,12.228,24.821,17.811 l0.73,1.159c0,0-22.485,1.49-30.881-1.029c-10-3-17.19-7.178-25-17c-4.706-5.918-7.647-9.817-12.172-20.07 c-12.275-27.813-18.543-48.17-18.543-48.17L86.163,305.447z"></path> <path style="fill:#025E45;" d="M103.125,209.175c10.762-2.736,20.546-12.011,26.614-21.311 c12.637-19.365,12.378-44.578,12.637-55.679c-2.024,9.229-11.881,40.577-16.727,49.202 C119.194,192.875,112.168,204.304,103.125,209.175z"></path> <path style="fill:#025E45;" d="M96.147,196.938c11.063-9.063,20.74-18.412,24.844-24.031c4.104-5.62,8.594-14.406,9.06-20.766 c-3.198,4.865-8.041,13.023-14.716,21.735C106.614,185.255,96.147,196.938,96.147,196.938z"></path> <path style="fill:#025E45;" d="M149.208,330.854c-0.367,0.051-0.92-0.954-1.132-1.625c-0.413-1.345-0.952-3.319-1.315-5.817 c-0.74-4.962-0.649-12.158,2.043-19.431c1.336-3.628,3.195-6.824,4.983-9.622c1.786-2.805,3.449-5.286,4.706-7.452 c1.273-2.157,2.152-3.985,2.69-5.277c0.548-1.288,0.787-2.029,0.836-2.013c0.017,0.005,0.184,2.726-1.936,7.508 c-1.175,2.651-1.675,3.653-3.433,6.463c-1.762,2.806-4.213,8.537-5.026,13.912c-0.674,4.459-1.057,9.047-1.063,16.75 C150.561,326.259,150.25,330.708,149.208,330.854z"></path> <path style="fill:#025E45;" d="M104.917,212c-0.376-0.047-0.729-0.108-1.067-0.187c-1.414,3.067-2.733,6.252-3.723,9.544 c-2.387,7.905-2.44,14.415-1.894,18.284c0.247,1.798,0.606,3.135,0.872,4.011c0.134,0.427,0.488,1.038,0.731,0.977 c0.69-0.176,1.017-3.202,1.076-4.645c0.255-6.125,0.731-10.313,1.496-14.837c0.712-4.21,2.245-9.065,3.806-13.037 C105.782,212.088,105.349,212.054,104.917,212z"></path> <path style="fill:#025E45;" d="M215.71,458.676c-4.689-3.844-8.904-9.912-12.51-17.045c-1.735-3.613-3.109-7.607-4.387-11.788 c-1.287-4.18-2.467-8.564-4.003-12.961c-1.542-4.39-3.415-8.589-5.904-12.238c-2.46-3.677-5.626-6.618-8.846-9.042 c-3.228-2.434-6.499-4.437-9.523-6.348c-3.029-1.904-5.827-3.709-8.216-5.582c-4.577-3.491-9.555-10.001-9.671-9.984 c2.343,7.56,12.046,15.042,15.016,16.935c3.017,1.924,8.516,6.084,11.667,9.542c2.695,2.958,3.703,4.6,6.167,9 c5.833,10.417,12.583,36.667,29.978,49.795c1.392,1.133,2.812,2.038,4.206,2.788C219.623,461.596,216.966,459.714,215.71,458.676z "></path> </g> </g> </svg> 