<?xml version="1.0" encoding="UTF-8"?> <!-- Generator: Adobe Illustrator 20.1.0, SVG Export Plug-In . SVG Version: 6.00 Build 0) --> <svg xmlns="http://www.w3.org/2000/svg" xmlns:xlink="http://www.w3.org/1999/xlink" id="Слой_1" x="0px" y="0px" viewBox="0 0 52.94 20" style="enable-background:new 0 0 52.94 20;" xml:space="preserve"> <style type="text/css"> .st0{fill:#FFFFFF;} </style> <g> <g> <g> <polygon class="st0" points="26.99,8.115 25.616,6.281 25.578,6.233 25.246,6.233 25.246,9.932 25.908,9.932 25.908,7.724 26.826,8.924 26.864,8.969 27.129,8.969 28.077,7.732 28.077,9.932 28.739,9.932 28.739,6.233 28.411,6.233 "></polygon> <path class="st0" d="M31.55,6.233h-0.314l-1.563,3.528l-0.078,0.171h0.708l0.299-0.69h1.573l0.27,0.622l0.036,0.068h0.706 l-1.606-3.625L31.55,6.233z M31.913,8.638h-1.046l0.523-1.24L31.913,8.638z"></path> <path class="st0" d="M35.311,8.528h1.185v0.294C36.39,8.976,36.25,9.1,36.078,9.189c-0.183,0.097-0.392,0.146-0.621,0.146h-0.025 c-0.351,0-0.651-0.122-0.893-0.361c-0.247-0.246-0.368-0.548-0.361-0.9c-0.008-0.341,0.112-0.637,0.353-0.88 c0.236-0.236,0.532-0.355,0.878-0.355h0.028c0.411,0,0.751,0.17,1.01,0.506l0.072,0.094l0.434-0.324l0.07-0.05l-0.072-0.099 c-0.172-0.229-0.392-0.411-0.654-0.54c-0.261-0.128-0.55-0.193-0.859-0.193h-0.027c-0.517,0-0.967,0.179-1.339,0.533 c-0.38,0.362-0.569,0.805-0.562,1.315c-0.007,0.512,0.182,0.956,0.562,1.318c0.372,0.354,0.822,0.533,1.339,0.533h0.027 c0.364,0,0.697-0.083,0.989-0.249c0.3-0.168,0.538-0.395,0.7-0.67L37.15,8.98V7.931h-1.839V8.528z"></path> <polygon class="st0" points="40.373,8.598 38.372,6.271 38.335,6.233 38.015,6.233 38.015,9.932 38.667,9.932 38.667,7.573 40.665,9.89 40.7,9.932 41.027,9.932 41.027,6.233 40.373,6.233 "></polygon> <rect x="42.155" y="6.233" class="st0" width="0.669" height="3.699"></rect> <polygon class="st0" points="43.741,6.233 43.741,6.843 45.004,6.843 45.004,9.932 45.673,9.932 45.673,6.843 46.94,6.843 46.94,6.233 "></polygon> </g> <g> <polygon class="st0" points="25.915,12.345 25.246,12.345 25.246,16.044 27.619,16.044 27.619,15.433 25.915,15.433 "></polygon> <path class="st0" d="M30.329,12.345h-0.312l-1.564,3.529l-0.074,0.17h0.706l0.299-0.69h1.574l0.3,0.69h0.709l-1.616-3.649 L30.329,12.345z M30.693,14.75h-1.045l0.523-1.239L30.693,14.75z"></path> <polygon class="st0" points="35.725,14.645 34.745,12.395 34.722,12.345 34.416,12.345 33.383,14.652 32.497,12.377 32.484,12.345 31.766,12.345 33.171,15.962 33.198,16.044 33.517,16.044 34.568,13.593 35.562,15.973 35.597,16.044 35.906,16.044 37.338,12.345 36.622,12.345 "></polygon> <polygon class="st0" points="40.517,16.044 41.186,16.044 41.186,14.515 42.699,14.515 42.699,13.899 41.186,13.899 41.186,12.955 43.008,12.955 43.008,12.345 40.517,12.345 "></polygon> <rect x="43.908" y="12.345" class="st0" width="0.669" height="3.699"></rect> <path class="st0" d="M48.074,14.147l0.011-0.014v0c0.144-0.189,0.217-0.413,0.217-0.665c0-0.328-0.121-0.601-0.358-0.813 c-0.234-0.206-0.541-0.31-0.914-0.31h-1.384v3.699h0.67v-1.45H46.9l1.077,1.402l0.038,0.048h0.803l-1.195-1.559 C47.805,14.408,47.956,14.295,48.074,14.147z M47.616,13.472c0,0.159-0.05,0.284-0.148,0.372 c-0.104,0.092-0.256,0.139-0.453,0.139h-0.699v-1.028h0.699c0.194,0,0.344,0.048,0.448,0.143 C47.564,13.191,47.616,13.317,47.616,13.472z"></path> <polygon class="st0" points="52.613,12.345 51.19,14.228 49.816,12.394 49.78,12.345 49.447,12.345 49.447,16.044 50.107,16.044 50.107,13.835 51.024,15.031 51.06,15.081 51.331,15.081 52.277,13.845 52.277,16.044 52.94,16.044 52.94,12.345 "></polygon> </g> </g> <g> <rect y="18.262" class="st0" width="20.486" height="1.738"></rect> <polygon class="st0" points="9.837,14.923 10.65,14.923 13.887,9.54 13.888,16.044 15.598,16.044 15.598,6.232 14.098,6.232 10.271,12.736 6.374,6.232 4.875,6.232 4.875,16.044 6.613,16.044 6.613,9.624 "></polygon> <polygon class="st0" points="0,16.044 1.738,16.044 1.738,1.738 18.748,1.738 18.748,16.044 20.486,16.044 20.486,0 0,0 "></polygon> </g> </g> </svg> 